<?xml version="1.0" standalone="no"?><!DOCTYPE svg PUBLIC "-//W3C//DTD SVG 1.1//EN" "http://www.w3.org/Graphics/SVG/1.1/DTD/svg11.dtd"><svg t="1740562709987" class="icon" viewBox="0 0 1024 1024" version="1.1" xmlns="http://www.w3.org/2000/svg" p-id="2240" data-spm-anchor-id="a313x.search_index.0.i5.523b3a81xisvKz" xmlns:xlink="http://www.w3.org/1999/xlink" width="200" height="200"><path d="M1017.477747 193.811251L830.186679 6.520182c-8.69506-8.690608-22.786134-8.690608-31.483421 0-8.592661 8.592661-8.677252 22.456674-0.280486 31.17177L752.369672 83.745053c-8.692834 8.692834-8.692834 22.78836 0 31.48342l31.568011 31.568012-98.58854 98.590766-31.570238-31.570237c-8.69506-8.690608-22.786134-8.690608-31.483421 0-8.692834 8.692834-8.692834 22.78836 0 31.48342l156.402012 156.402011c4.34753 4.345304 10.044064 6.520182 15.740597 6.520183s11.393067-2.174878 15.740597-6.520183c8.692834-8.692834 8.692834-22.78836 0-31.48342l-31.570238-31.570238 98.590767-98.58854 31.568011 31.568011c4.34753 4.345304 10.044064 6.520182 15.740598 6.520183s11.393067-2.174878 15.740597-6.520183l46.053101-46.053101a22.185093 22.185093 0 0 0 15.431172 6.239697 22.193997 22.193997 0 0 0 15.740597-6.520182c8.699513-8.692834 8.699513-22.78836 0.004452-31.483421z m-270.348263 113.354116l-30.296921-30.296921 98.588541-98.590767 30.299147 30.299147-98.590767 98.588541z m177.382796-82.7589l-124.918591-124.918591 30.296921-30.296921 124.918591 124.918591-30.296921 30.296921zM468.435654 399.158038l-49.425608-49.423383c-8.692834-8.690608-22.78836-8.690608-31.481195 0L238.176829 499.086678a22.267458 22.267458 0 0 0 0 31.481194l33.682785 33.682786-117.868601 117.868601-15.150687-15.150686a22.263006 22.263006 0 0 0-31.481194 0l-85.392351 85.394576c-8.692834 8.692834-8.692834 22.78836 0 31.483421l15.148461 15.14846L6.522253 829.592472c-8.692834 8.692834-8.692834 22.78836 0 31.48342l156.402011 156.402011a22.263006 22.263006 0 0 0 31.481194 0l30.595216-30.595215 15.150686 15.150686c4.34753 4.345304 10.044064 6.520182 15.740597 6.520183s11.395293-2.174878 15.740598-6.520183l85.39235-85.39235c8.692834-8.692834 8.692834-22.78836 0-31.483421l-15.148461-15.150686L624.839892 587.04347a22.267458 22.267458 0 0 0 0-31.481195l-156.404238-156.404237z m-183.034807 115.669237l117.870827-117.870828 17.942189 17.944414-117.870828 117.870828-17.942188-17.944414zM237.07492 828.167782L183.163764 882.078938 141.916766 840.834165l53.913382-53.911156 41.244772 41.244773z m-113.972965-113.972965l41.246999 41.244772-53.913382 53.911156-26.087408-26.085182-0.008904-0.008904-0.008905-0.008904-15.139556-15.139556 53.911156-53.913382z m55.562906 256.056842l-124.920817-124.91859 14.854618-14.854618 124.918591 124.91859-14.852392 14.854618z m77.227096-15.444528l-41.246998-41.244773 53.911156-53.911156 41.246998 41.246999-53.911156 53.90893z m54.501067-116.283635l-26.087408-26.087407-0.006678-0.006678-0.006678-0.006679-72.717063-72.719288-0.002226-0.004452-0.004452-0.002226-26.09186-26.09186 133.604747-133.604747 0.006678-0.004452 0.004453-0.006678 133.604746-133.604747 124.920817 124.918591-267.225076 267.220623zM514.771467 352.824452c-8.690608-8.688382-22.786134-8.690608-31.481194 0-8.692834 8.692834-8.692834 22.78836 0 31.48342l156.399785 156.402011a22.198449 22.198449 0 0 0 15.740597 6.520183 22.198449 22.198449 0 0 0 15.740597-6.520183c8.692834-8.692834 8.692834-22.78836 0-31.48342l-156.399785-156.402011zM561.109506 306.488639c-8.69506-8.690608-22.786134-8.690608-31.483421 0-8.692834 8.692834-8.692834 22.78836 0 31.483421l156.402011 156.402011c4.34753 4.345304 10.044064 6.520182 15.740598 6.520182s11.393067-2.174878 15.740597-6.520182c8.692834-8.692834 8.692834-22.78836 0-31.483421l-156.399785-156.402011zM607.443092 260.1506c-8.69506-8.690608-22.786134-8.690608-31.48342 0-8.692834 8.692834-8.692834 22.78836 0 31.483421l156.404237 156.404237c4.34753 4.345304 10.044064 6.520182 15.740597 6.520182s11.393067-2.174878 15.740597-6.520182c8.692834-8.692834 8.692834-22.78836 0-31.483421l-156.402011-156.404237z" p-id="2241" fill="#253842"></path></svg>